<svg xmlns="http://www.w3.org/2000/svg" xmlns:xlink="http://www.w3.org/1999/xlink" width="140" zoomAndPan="magnify" viewBox="0 0 104.88 30.000001" height="40" preserveAspectRatio="xMidYMid meet" version="1.0"><defs><clipPath id="id1"><path d="M 7.441406 8 L 23.410156 8 L 23.410156 20.90625 L 7.441406 20.90625 Z M 7.441406 8 " clip-rule="nonzero"/></clipPath><clipPath id="id2"><path d="M 28.007812 7.609375 L 41.800781 7.609375 L 41.800781 21.398438 L 28.007812 21.398438 Z M 28.007812 7.609375 " clip-rule="nonzero"/></clipPath><clipPath id="id3"><path d="M 45.136719 6.453125 L 59.652344 6.453125 L 59.652344 20.96875 L 45.136719 20.96875 Z M 45.136719 6.453125 " clip-rule="nonzero"/></clipPath><clipPath id="id4"><path d="M 65.101562 8.699219 L 78.894531 8.699219 L 78.894531 21.035156 L 65.101562 21.035156 Z M 65.101562 8.699219 " clip-rule="nonzero"/></clipPath><clipPath id="id5"><path d="M 84.46875 7.914062 L 96.082031 7.914062 L 96.082031 19.527344 L 84.46875 19.527344 Z M 84.46875 7.914062 " clip-rule="nonzero"/></clipPath></defs><g clip-path="url(#id1)"><path fill="rgb(100%, 100%, 100%)" d="M 21.761719 11.351562 C 21.773438 11.488281 21.773438 11.628906 21.773438 11.765625 C 21.773438 16.011719 18.484375 20.902344 12.46875 20.902344 C 10.695312 20.90625 8.953125 20.40625 7.457031 19.460938 C 7.714844 19.492188 7.976562 19.507812 8.238281 19.507812 C 9.707031 19.507812 11.140625 19.023438 12.296875 18.132812 C 10.898438 18.105469 9.671875 17.207031 9.242188 15.902344 C 9.734375 15.992188 10.238281 15.972656 10.71875 15.84375 C 9.191406 15.542969 8.097656 14.226562 8.097656 12.695312 C 8.097656 12.683594 8.097656 12.671875 8.097656 12.65625 C 8.550781 12.90625 9.058594 13.042969 9.578125 13.058594 C 8.144531 12.117188 7.699219 10.238281 8.566406 8.769531 C 10.226562 10.777344 12.675781 11.996094 15.304688 12.125 C 15.042969 11.011719 15.402344 9.839844 16.253906 9.058594 C 17.570312 7.839844 19.640625 7.902344 20.878906 9.195312 C 21.609375 9.054688 22.3125 8.792969 22.953125 8.417969 C 22.710938 9.160156 22.199219 9.792969 21.519531 10.191406 C 22.164062 10.117188 22.800781 9.949219 23.394531 9.6875 C 22.957031 10.332031 22.402344 10.898438 21.761719 11.351562 Z M 21.761719 11.351562 " fill-opacity="1" fill-rule="nonzero"/></g><g clip-path="url(#id2)"><path fill="rgb(100%, 100%, 100%)" d="M 41.796875 14.546875 C 41.796875 10.714844 38.710938 7.609375 34.90625 7.609375 C 31.097656 7.609375 28.015625 10.714844 28.015625 14.546875 C 28.015625 18.007812 30.535156 20.878906 33.828125 21.398438 L 33.828125 16.550781 L 32.078125 16.550781 L 32.078125 14.546875 L 33.828125 14.546875 L 33.828125 13.019531 C 33.828125 11.28125 34.855469 10.320312 36.429688 10.320312 C 37.183594 10.320312 37.972656 10.453125 37.972656 10.453125 L 37.972656 12.160156 L 37.105469 12.160156 C 36.25 12.160156 35.980469 12.695312 35.980469 13.246094 L 35.980469 14.546875 L 37.890625 14.546875 L 37.585938 16.550781 L 35.980469 16.550781 L 35.980469 21.398438 C 39.277344 20.878906 41.796875 18.007812 41.796875 14.546875 " fill-opacity="1" fill-rule="nonzero"/></g><g clip-path="url(#id3)"><path fill="rgb(100%, 100%, 100%)" d="M 52.402344 6.453125 C 48.40625 6.453125 45.152344 9.703125 45.152344 13.699219 C 45.152344 14.976562 45.484375 16.222656 46.121094 17.320312 L 45.136719 20.96875 L 48.933594 20.070312 C 49.992188 20.648438 51.183594 20.953125 52.398438 20.953125 L 52.402344 20.953125 C 56.398438 20.953125 59.648438 17.703125 59.652344 13.707031 C 59.652344 11.769531 58.898438 9.949219 57.53125 8.578125 C 56.160156 7.207031 54.34375 6.453125 52.402344 6.453125 Z M 52.402344 7.902344 C 53.953125 7.90625 55.410156 8.507812 56.503906 9.601562 C 57.597656 10.699219 58.203125 12.15625 58.199219 13.703125 C 58.199219 16.902344 55.597656 19.5 52.398438 19.5 C 51.433594 19.5 50.472656 19.257812 49.628906 18.796875 L 49.140625 18.53125 L 48.601562 18.65625 L 47.171875 18.996094 L 47.519531 17.699219 L 47.679688 17.117188 L 47.378906 16.597656 C 46.871094 15.71875 46.601562 14.71875 46.605469 13.699219 C 46.605469 10.503906 49.207031 7.902344 52.402344 7.902344 Z M 49.835938 10.351562 C 49.714844 10.351562 49.519531 10.398438 49.355469 10.582031 C 49.1875 10.761719 48.71875 11.199219 48.71875 12.089844 C 48.71875 12.980469 49.367188 13.84375 49.457031 13.964844 C 49.550781 14.085938 50.710938 15.972656 52.554688 16.695312 C 54.082031 17.300781 54.394531 17.179688 54.726562 17.152344 C 55.058594 17.121094 55.800781 16.714844 55.949219 16.289062 C 56.101562 15.867188 56.101562 15.503906 56.054688 15.429688 C 56.011719 15.351562 55.890625 15.308594 55.710938 15.21875 C 55.527344 15.125 54.636719 14.6875 54.472656 14.628906 C 54.304688 14.570312 54.183594 14.539062 54.0625 14.71875 C 53.941406 14.902344 53.597656 15.308594 53.492188 15.429688 C 53.382812 15.550781 53.277344 15.566406 53.097656 15.476562 C 52.917969 15.382812 52.332031 15.191406 51.640625 14.574219 C 51.101562 14.09375 50.738281 13.503906 50.632812 13.320312 C 50.527344 13.140625 50.621094 13.042969 50.714844 12.953125 C 50.792969 12.871094 50.894531 12.738281 50.984375 12.632812 C 51.074219 12.527344 51.105469 12.453125 51.164062 12.332031 C 51.226562 12.210938 51.195312 12.105469 51.148438 12.015625 C 51.105469 11.925781 50.753906 11.03125 50.589844 10.671875 C 50.457031 10.371094 50.3125 10.363281 50.183594 10.359375 C 50.078125 10.351562 49.957031 10.351562 49.835938 10.351562 Z M 49.835938 10.351562 " fill-opacity="1" fill-rule="nonzero"/></g><g clip-path="url(#id4)"><path fill="rgb(100%, 100%, 100%)" d="M 68.429688 15.847656 L 70.140625 20.210938 L 72.367188 17.9375 L 76.1875 21.035156 L 78.875 8.699219 L 65.117188 14.546875 Z M 74.945312 12.238281 L 70.734375 16.15625 L 70.210938 18.175781 L 69.242188 15.703125 Z M 74.945312 12.238281 " fill-opacity="1" fill-rule="nonzero"/></g><g clip-path="url(#id5)"><path fill="rgb(100%, 100%, 100%)" d="M 94.003906 15.359375 C 93.402344 15.359375 92.867188 15.613281 92.488281 16.019531 L 88.621094 13.871094 C 88.625 13.832031 88.625 13.792969 88.625 13.75 C 88.625 13.71875 88.621094 13.6875 88.621094 13.652344 L 92.539062 11.480469 C 92.914062 11.851562 93.429688 12.082031 94 12.082031 C 95.148438 12.082031 96.082031 11.148438 96.082031 10 C 96.082031 8.847656 95.148438 7.914062 94.003906 7.914062 C 92.855469 7.914062 91.925781 8.847656 91.925781 10 C 91.925781 10.058594 91.929688 10.121094 91.933594 10.183594 L 88.066406 12.332031 C 87.6875 11.925781 87.148438 11.667969 86.546875 11.667969 C 85.398438 11.667969 84.46875 12.597656 84.46875 13.75 C 84.46875 14.902344 85.398438 15.835938 86.546875 15.835938 C 87.140625 15.835938 87.671875 15.585938 88.050781 15.1875 L 91.929688 17.34375 C 91.929688 17.375 91.925781 17.410156 91.925781 17.441406 C 91.925781 18.59375 92.855469 19.527344 94.003906 19.527344 C 95.148438 19.527344 96.082031 18.59375 96.082031 17.441406 C 96.082031 16.292969 95.148438 15.359375 94.003906 15.359375 Z M 94.003906 15.359375 " fill-opacity="1" fill-rule="nonzero"/></g></svg>